<svg xmlns="http://www.w3.org/2000/svg" width="24" height="25" viewBox="0 0 24 25" fill="none">
  <path d="M22.5 18.2146H1.5C1.30109 18.2146 1.11032 18.1356 0.96967 17.9949C0.829018 17.8543 0.75 17.6635 0.75 17.4646C0.75 17.2657 0.829018 17.0749 0.96967 16.9343C1.11032 16.7936 1.30109 16.7146 1.5 16.7146H22.5C22.6989 16.7146 22.8897 16.7936 23.0303 16.9343C23.171 17.0749 23.25 17.2657 23.25 17.4646C23.25 17.6635 23.171 17.8543 23.0303 17.9949C22.8897 18.1356 22.6989 18.2146 22.5 18.2146Z" fill="#777777"/>
  <path d="M18 21.2146H6C5.80109 21.2146 5.61032 21.1356 5.46967 20.9949C5.32902 20.8543 5.25 20.6635 5.25 20.4646C5.25 20.2657 5.32902 20.0749 5.46967 19.9343C5.61032 19.7936 5.80109 19.7146 6 19.7146H18C18.1989 19.7146 18.3897 19.7936 18.5303 19.9343C18.671 20.0749 18.75 20.2657 18.75 20.4646C18.75 20.6635 18.671 20.8543 18.5303 20.9949C18.3897 21.1356 18.1989 21.2146 18 21.2146Z" fill="#777777"/>
  <path d="M18 15.5896C17.8011 15.5896 17.6103 15.5106 17.4697 15.3699C17.329 15.2293 17.25 15.0385 17.25 14.8396C17.25 13.4472 16.6969 12.1119 15.7123 11.1273C14.7277 10.1427 13.3924 9.5896 12 9.5896C10.6076 9.5896 9.27226 10.1427 8.28769 11.1273C7.30312 12.1119 6.75 13.4472 6.75 14.8396C6.75 15.0385 6.67098 15.2293 6.53033 15.3699C6.38968 15.5106 6.19891 15.5896 6 15.5896C5.80109 15.5896 5.61032 15.5106 5.46967 15.3699C5.32902 15.2293 5.25 15.0385 5.25 14.8396C5.25 13.0494 5.96116 11.3325 7.22703 10.0666C8.4929 8.80076 10.2098 8.0896 12 8.0896C13.7902 8.0896 15.5071 8.80076 16.773 10.0666C18.0388 11.3325 18.75 13.0494 18.75 14.8396C18.75 15.0385 18.671 15.2293 18.5303 15.3699C18.3897 15.5106 18.1989 15.5896 18 15.5896Z" fill="#777777"/>
  <path d="M12 7.3396C11.8011 7.3396 11.6103 7.26058 11.4697 7.11993C11.329 6.97928 11.25 6.78851 11.25 6.5896V5.4646C11.25 5.26569 11.329 5.07492 11.4697 4.93427C11.6103 4.79362 11.8011 4.7146 12 4.7146C12.1989 4.7146 12.3897 4.79362 12.5303 4.93427C12.671 5.07492 12.75 5.26569 12.75 5.4646V6.5896C12.75 6.78851 12.671 6.97928 12.5303 7.11993C12.3897 7.26058 12.1989 7.3396 12 7.3396Z" fill="#777777"/>
  <path d="M7.87522 8.44512C7.74344 8.44525 7.61396 8.41065 7.4998 8.34482C7.38565 8.27899 7.29086 8.18424 7.22497 8.07012L6.66247 7.09512C6.56458 6.92295 6.53876 6.71905 6.59066 6.52792C6.64255 6.33679 6.76793 6.17394 6.93945 6.07491C7.11096 5.97589 7.31468 5.94872 7.50616 5.99934C7.69763 6.04996 7.8613 6.17426 7.96147 6.34512L8.52397 7.32012C8.58976 7.43408 8.62441 7.56334 8.62445 7.69493C8.62448 7.82651 8.58989 7.9558 8.52416 8.06979C8.45842 8.18378 8.36385 8.27847 8.24995 8.34435C8.13604 8.41023 8.0068 8.44498 7.87522 8.44512Z" fill="#777777"/>
  <path d="M4.85431 11.4646C4.72263 11.4648 4.59325 11.4301 4.47931 11.3641L3.50431 10.8016C3.41832 10.7527 3.34286 10.6873 3.28226 10.6091C3.22166 10.5309 3.17712 10.4416 3.1512 10.3461C3.12529 10.2506 3.11851 10.151 3.13126 10.0529C3.14401 9.95484 3.17603 9.86025 3.22549 9.77459C3.27494 9.68893 3.34085 9.6139 3.41942 9.55382C3.49799 9.49374 3.58767 9.44979 3.6833 9.42451C3.77892 9.39923 3.8786 9.39311 3.9766 9.40651C4.0746 9.41991 4.16898 9.45256 4.25431 9.50258L5.22931 10.0651C5.37228 10.1476 5.48402 10.2751 5.54719 10.4276C5.61037 10.5801 5.62145 10.7492 5.57872 10.9087C5.53599 11.0682 5.44183 11.2091 5.31086 11.3096C5.17988 11.4101 5.0194 11.4646 4.85431 11.4646Z" fill="#777777"/>
  <path d="M3.75 15.5896H2.625C2.42609 15.5896 2.23532 15.5106 2.09467 15.3699C1.95402 15.2293 1.875 15.0385 1.875 14.8396C1.875 14.6407 1.95402 14.4499 2.09467 14.3093C2.23532 14.1686 2.42609 14.0896 2.625 14.0896H3.75C3.94891 14.0896 4.13968 14.1686 4.28033 14.3093C4.42098 14.4499 4.5 14.6407 4.5 14.8396C4.5 15.0385 4.42098 15.2293 4.28033 15.3699C4.13968 15.5106 3.94891 15.5896 3.75 15.5896Z" fill="#777777"/>
  <path d="M21.375 15.5896H20.25C20.0511 15.5896 19.8603 15.5106 19.7197 15.3699C19.579 15.2293 19.5 15.0385 19.5 14.8396C19.5 14.6407 19.579 14.4499 19.7197 14.3093C19.8603 14.1686 20.0511 14.0896 20.25 14.0896H21.375C21.5739 14.0896 21.7647 14.1686 21.9053 14.3093C22.046 14.4499 22.125 14.6407 22.125 14.8396C22.125 15.0385 22.046 15.2293 21.9053 15.3699C21.7647 15.5106 21.5739 15.5896 21.375 15.5896Z" fill="#777777"/>
  <path d="M19.1455 11.4646C18.9804 11.4646 18.8199 11.4101 18.6889 11.3096C18.5579 11.2091 18.4638 11.0682 18.4211 10.9087C18.3783 10.7492 18.3894 10.5801 18.4526 10.4276C18.5158 10.2751 18.6275 10.1476 18.7705 10.0651L19.7455 9.50258C19.8308 9.45256 19.9252 9.41991 20.0232 9.40651C20.1212 9.39311 20.2209 9.39923 20.3165 9.42451C20.4121 9.44979 20.5018 9.49374 20.5804 9.55382C20.6589 9.6139 20.7248 9.68893 20.7743 9.77459C20.8238 9.86025 20.8558 9.95484 20.8685 10.0529C20.8813 10.151 20.8745 10.2506 20.8486 10.3461C20.8227 10.4416 20.7781 10.5309 20.7175 10.6091C20.6569 10.6873 20.5815 10.7527 20.4955 10.8016L19.5205 11.3641C19.4065 11.4301 19.2772 11.4648 19.1455 11.4646Z" fill="#777777"/>
  <path d="M16.1252 8.44512C15.9936 8.44498 15.8644 8.41023 15.7505 8.34435C15.6366 8.27847 15.542 8.18378 15.4763 8.06979C15.4105 7.9558 15.3759 7.82651 15.376 7.69493C15.376 7.56334 15.4107 7.43408 15.4765 7.32012L16.039 6.34512C16.1391 6.17426 16.3028 6.04996 16.4943 5.99934C16.6857 5.94872 16.8895 5.97589 17.061 6.07491C17.2325 6.17394 17.3579 6.33679 17.4098 6.52792C17.4617 6.71905 17.4358 6.92295 17.338 7.09512L16.7755 8.07012C16.7096 8.18424 16.6148 8.27899 16.5006 8.34482C16.3865 8.41065 16.257 8.44525 16.1252 8.44512Z" fill="#777777"/>
  <path d="M12 15.9646C11.8011 15.9646 11.6103 15.8856 11.4697 15.7449C11.329 15.6043 11.25 15.4135 11.25 15.2146V13.7146C11.25 13.5157 11.329 13.3249 11.4697 13.1843C11.6103 13.0436 11.8011 12.9646 12 12.9646C12.1989 12.9646 12.3897 13.0436 12.5303 13.1843C12.671 13.3249 12.75 13.5157 12.75 13.7146V15.2146C12.75 15.4135 12.671 15.6043 12.5303 15.7449C12.3897 15.8856 12.1989 15.9646 12 15.9646Z" fill="#777777"/>
  <path d="M13.8751 13.7146C13.7766 13.7148 13.679 13.6954 13.588 13.6577C13.497 13.62 13.4143 13.5647 13.3448 13.4949L12.0001 12.1505L10.6553 13.4949C10.5139 13.6315 10.3244 13.7071 10.1278 13.7054C9.93111 13.7037 9.743 13.6248 9.60395 13.4857C9.46489 13.3467 9.38601 13.1586 9.38431 12.9619C9.3826 12.7653 9.45819 12.5758 9.59481 12.4344L11.4698 10.5594C11.6105 10.4188 11.8012 10.3398 12.0001 10.3398C12.1989 10.3398 12.3897 10.4188 12.5303 10.5594L14.4053 12.4344C14.5102 12.5393 14.5816 12.6729 14.6105 12.8183C14.6394 12.9638 14.6246 13.1146 14.5678 13.2516C14.5111 13.3886 14.415 13.5058 14.2917 13.5882C14.1683 13.6706 14.0234 13.7146 13.8751 13.7146Z" fill="#777777"/>
</svg>