<svg width="21" height="22" viewBox="0 0 21 22" fill="none" xmlns="http://www.w3.org/2000/svg">
<g id="elements">
<path id="Vector" fill-rule="evenodd" clip-rule="evenodd" d="M10.4428 0.75H10.5572C12.7479 0.749987 14.4686 0.749976 15.812 0.930594C17.1886 1.11568 18.2809 1.50271 19.1391 2.36091C19.9973 3.21911 20.3843 4.31137 20.5694 5.68802C20.75 7.03144 20.75 8.75212 20.75 10.9428V11.0572C20.75 13.2479 20.75 14.9686 20.5694 16.312C20.3843 17.6886 19.9973 18.7809 19.1391 19.6391C18.2809 20.4973 17.1886 20.8843 15.812 21.0694C14.4686 21.25 12.7479 21.25 10.5572 21.25H10.4428C8.25212 21.25 6.53144 21.25 5.18802 21.0694C3.81137 20.8843 2.71911 20.4973 1.86091 19.6391C1.00271 18.7809 0.61568 17.6886 0.430594 16.312C0.249976 14.9686 0.249987 13.2479 0.25 11.0572V10.9428C0.249987 8.75212 0.249976 7.03144 0.430594 5.68802C0.615681 4.31137 1.00272 3.21911 1.86091 2.36091C2.71911 1.50272 3.81137 1.11568 5.18802 0.930594C6.53144 0.749976 8.25212 0.749987 10.4428 0.75ZM5.38789 2.41722C4.17757 2.57994 3.45462 2.88853 2.92157 3.42157C2.38853 3.95462 2.07994 4.67757 1.91722 5.88789C1.75159 7.11979 1.75 8.73963 1.75 11C1.75 13.2604 1.75159 14.8802 1.91722 16.1121C2.07994 17.3224 2.38853 18.0454 2.92157 18.5784C3.45462 19.1115 4.17757 19.4201 5.38789 19.5828C6.61979 19.7484 8.23963 19.75 10.5 19.75C12.7604 19.75 14.3802 19.7484 15.6121 19.5828C16.8224 19.4201 17.5454 19.1115 18.0784 18.5784C18.6115 18.0454 18.9201 17.3224 19.0828 16.1121C19.2484 14.8802 19.25 13.2604 19.25 11C19.25 8.73963 19.2484 7.11979 19.0828 5.88789C18.9201 4.67757 18.6115 3.95462 18.0784 3.42157C17.5454 2.88853 16.8224 2.57994 15.6121 2.41722C14.3802 2.25159 12.7604 2.25 10.5 2.25C8.23963 2.25 6.61979 2.25159 5.38789 2.41722Z" fill="#FF620A"/>
<path id="Vector_2" fill-rule="evenodd" clip-rule="evenodd" d="M9.99103 10.7512C9.92158 10.75 9.84127 10.75 9.74219 10.75C9.32797 10.75 8.99219 10.4142 8.99219 10C8.99219 9.58579 9.32797 9.25 9.74219 9.25C9.75361 9.25 9.7651 9.25 9.77663 9.24999C9.98175 9.24991 10.2035 9.24983 10.3908 9.275C10.6101 9.30448 10.8903 9.38032 11.1261 9.61612C11.3619 9.85192 11.4377 10.1321 11.4672 10.3514C11.4924 10.5386 11.4923 10.7604 11.4922 10.9656C11.4922 10.9771 11.4922 10.9886 11.4922 11V16C11.4922 16.4142 11.1564 16.75 10.7422 16.75C10.328 16.75 9.99219 16.4142 9.99219 16V11C9.99219 10.9009 9.99215 10.8206 9.99103 10.7512Z" fill="#FF620A"/>
<path id="Vector_3" fill-rule="evenodd" clip-rule="evenodd" d="M9.49219 7C9.49219 6.44772 9.9399 6 10.4922 6H10.5012C11.0535 6 11.5012 6.44772 11.5012 7C11.5012 7.55228 11.0535 8 10.5012 8H10.4922C9.9399 8 9.49219 7.55228 9.49219 7Z" fill="#FF620A"/>
</g>
</svg>
