<svg width="192" height="16" viewBox="0 0 192 16" fill="none" xmlns="http://www.w3.org/2000/svg">
<g clip-path="url(#clip0_19508_252161)">
<path d="M4.37114e-08 7.5C-0.276142 7.5 -0.5 7.72386 -0.5 8C-0.5 8.27614 -0.276142 8.5 -4.37114e-08 8.5L4.37114e-08 7.5ZM192 8.50002C192.276 8.50002 192.5 8.27616 192.5 8.00002C192.5 7.72387 192.276 7.50002 192 7.50002L192 8.50002ZM-4.37114e-08 8.5L1 8.5L1 7.5L4.37114e-08 7.5L-4.37114e-08 8.5ZM3 8.5L5 8.5L5 7.5L3 7.5L3 8.5ZM7 8.5L9 8.5L9 7.5L7 7.5L7 8.5ZM11 8.5L13 8.5L13 7.5L11 7.5L11 8.5ZM15 8.5L17 8.5L17 7.5L15 7.5L15 8.5ZM19 8.5L21 8.5L21 7.5L19 7.5L19 8.5ZM23 8.5L25 8.5L25 7.5L23 7.5L23 8.5ZM27 8.5L29 8.5L29 7.5L27 7.5L27 8.5ZM31 8.5L33 8.5L33 7.5L31 7.5L31 8.5ZM35 8.5L37 8.5L37 7.5L35 7.5L35 8.5ZM39 8.5L41 8.5L41 7.5L39 7.5L39 8.5ZM43 8.5L45 8.5L45 7.5L43 7.5L43 8.5ZM47 8.5L49 8.5L49 7.5L47 7.5L47 8.5ZM51 8.5L53 8.5L53 7.5L51 7.5L51 8.5ZM55 8.5L57 8.5L57 7.5L55 7.5L55 8.5ZM59 8.50001L61 8.50001L61 7.50001L59 7.50001L59 8.50001ZM63 8.50001L65 8.50001L65 7.50001L63 7.50001L63 8.50001ZM67 8.50001L69 8.50001L69 7.50001L67 7.50001L67 8.50001ZM71 8.50001L73 8.50001L73 7.50001L71 7.50001L71 8.50001ZM75 8.50001L77 8.50001L77 7.50001L75 7.50001L75 8.50001ZM79 8.50001L81 8.50001L81 7.50001L79 7.50001L79 8.50001ZM83 8.50001L85 8.50001L85 7.50001L83 7.50001L83 8.50001ZM87 8.50001L89 8.50001L89 7.50001L87 7.50001L87 8.50001ZM91 8.50001L93 8.50001L93 7.50001L91 7.50001L91 8.50001ZM95 8.50001L97 8.50001L97 7.50001L95 7.50001L95 8.50001ZM99 8.50001L101 8.50001L101 7.50001L99 7.50001L99 8.50001ZM103 8.50001L105 8.50001L105 7.50001L103 7.50001L103 8.50001ZM107 8.50001L109 8.50001L109 7.50001L107 7.50001L107 8.50001ZM111 8.50001L113 8.50001L113 7.50001L111 7.50001L111 8.50001ZM115 8.50001L117 8.50001L117 7.50001L115 7.50001L115 8.50001ZM119 8.50001L121 8.50001L121 7.50001L119 7.50001L119 8.50001ZM123 8.50001L125 8.50001L125 7.50001L123 7.50001L123 8.50001ZM127 8.50001L129 8.50001L129 7.50001L127 7.50001L127 8.50001ZM131 8.50001L133 8.50001L133 7.50001L131 7.50001L131 8.50001ZM135 8.50001L137 8.50001L137 7.50001L135 7.50001L135 8.50001ZM139 8.50001L141 8.50001L141 7.50001L139 7.50001L139 8.50001ZM143 8.50001L145 8.50001L145 7.50001L143 7.50001L143 8.50001ZM147 8.50001L149 8.50001L149 7.50001L147 7.50001L147 8.50001ZM151 8.50001L153 8.50001L153 7.50001L151 7.50001L151 8.50001ZM155 8.50001L157 8.50001L157 7.50001L155 7.50001L155 8.50001ZM159 8.50001L161 8.50001L161 7.50001L159 7.50001L159 8.50001ZM163 8.50001L165 8.50001L165 7.50001L163 7.50001L163 8.50001ZM167 8.50001L169 8.50001L169 7.50001L167 7.50001L167 8.50001ZM171 8.50001L173 8.50002L173 7.50002L171 7.50001L171 8.50001ZM175 8.50002L177 8.50002L177 7.50002L175 7.50002L175 8.50002ZM179 8.50002L181 8.50002L181 7.50002L179 7.50002L179 8.50002ZM183 8.50002L185 8.50002L185 7.50002L183 7.50002L183 8.50002ZM187 8.50002L189 8.50002L189 7.50002L187 7.50002L187 8.50002ZM191 8.50002L192 8.50002L192 7.50002L191 7.50002L191 8.50002Z" fill="#D7D8D6"/>
<rect x="1" y="3" width="10" height="10" rx="5" fill="white"/>
<rect x="1" y="3" width="10" height="10" rx="5" stroke="#DEDEDE" stroke-width="2"/>
<circle cx="6" cy="8" r="2" fill="#1565B8"/>
<path d="M92.6 14L93.8 14L96.8 8.9L100.1 8.9C100.598 8.9 101 8.498 101 8C101 7.502 100.598 7.1 100.1 7.1L96.8 7.1L93.8 2L92.6 2L94.1 7.1L90.8 7.1L89.9 5.6L89 5.6L89.6 8L89 10.4L89.9 10.4L90.8 8.9L94.1 8.9L92.6 14Z" fill="#1565B8"/>
<rect x="184.5" y="4.5" width="7" height="7" rx="3.5" fill="white"/>
<rect x="184.5" y="4.5" width="7" height="7" rx="3.5" stroke="#DEDEDE"/>
<circle cx="188" cy="8" r="2" fill="#1565B8"/>
</g>
<defs>
<clipPath id="clip0_19508_252161">
<rect width="192" height="16" fill="white"/>
</clipPath>
</defs>
</svg>
