<svg width="18" height="19" viewBox="0 0 18 19" fill="none" xmlns="http://www.w3.org/2000/svg">
<g id="elements">
<path id="Vector" opacity="0.4" d="M10.3481 17.3061C9.98671 17.6445 9.50366 17.8337 9.00093 17.8337C8.49821 17.8337 8.01515 17.6445 7.65374 17.3061C4.34418 14.1886 -0.0910308 10.7061 2.07189 5.65005C3.24136 2.91629 6.04862 1.16699 9.00093 1.16699C11.9532 1.16699 14.7605 2.91629 15.93 5.65005C18.0902 10.6997 13.6658 14.1994 10.3481 17.3061Z" fill="#767676"/>
<path id="Vector_2" fill-rule="evenodd" clip-rule="evenodd" d="M9.00079 1.79199C6.28464 1.79199 3.71206 3.40473 2.64638 5.89587C1.66842 8.18194 2.16308 10.094 3.33172 11.8602C4.33554 13.3772 5.79828 14.7318 7.24067 16.0675C7.52286 16.3288 7.80427 16.5894 8.08131 16.8504C8.32489 17.0782 8.65425 17.2087 9.00079 17.2087C9.34759 17.2087 9.67719 17.078 9.92082 16.8499C10.181 16.6063 10.4449 16.3628 10.7096 16.1185C12.1706 14.7705 13.6569 13.3991 14.6716 11.8623C15.8391 10.094 16.3319 8.179 15.3552 5.89587C14.2895 3.40473 11.7169 1.79199 9.00079 1.79199ZM1.49712 5.40423C2.77039 2.42785 5.81233 0.541992 9.00079 0.541992C12.1893 0.541992 15.2312 2.42785 16.5045 5.40423C17.688 8.17077 17.0487 10.5305 15.7147 12.551C14.6082 14.227 12.9887 15.7192 11.5321 17.0613C11.2734 17.2997 11.0198 17.5333 10.7752 17.7623L10.7751 17.7624C10.296 18.211 9.65945 18.4587 9.00079 18.4587C8.34214 18.4587 7.70563 18.211 7.22644 17.7624L7.22506 17.7611C6.96622 17.5173 6.69713 17.2684 6.42236 17.0143C4.98147 15.6818 3.38432 14.2049 2.28927 12.5499C0.953648 10.5314 0.312161 8.1742 1.49712 5.40423Z" fill="#767676"/>
<path id="Vector_3" d="M11.9163 8.66667C11.9163 10.2775 10.6105 11.5833 8.99967 11.5833C7.38884 11.5833 6.08301 10.2775 6.08301 8.66667C6.08301 7.05584 7.38884 5.75 8.99967 5.75C10.6105 5.75 11.9163 7.05584 11.9163 8.66667Z" fill="#767676"/>
<path id="Vector_4" fill-rule="evenodd" clip-rule="evenodd" d="M8.99967 6.375C7.73402 6.375 6.70801 7.40101 6.70801 8.66667C6.70801 9.93232 7.73402 10.9583 8.99967 10.9583C10.2653 10.9583 11.2913 9.93232 11.2913 8.66667C11.2913 7.40101 10.2653 6.375 8.99967 6.375ZM5.45801 8.66667C5.45801 6.71066 7.04367 5.125 8.99967 5.125C10.9557 5.125 12.5413 6.71066 12.5413 8.66667C12.5413 10.6227 10.9557 12.2083 8.99967 12.2083C7.04367 12.2083 5.45801 10.6227 5.45801 8.66667Z" fill="#767676"/>
</g>
</svg>
